<svg xmlns="http://www.w3.org/2000/svg" width="1080" height="1350" viewBox="0 0 1080 1350" role="img" aria-label="Authentication record post">
  <rect width="1080" height="1350" fill="#111111"/>
<g transform="translate(540 300) scale(1.25) translate(-100 -94)"><g fill="none" stroke="#B4935A" stroke-width="10"><path d="M33 155V100a67 67 0 0 1 134 0v55"/></g><g transform="translate(100 102) scale(.72) translate(-100.5 -100)"><g fill="none" stroke="#B4935A" stroke-width="13"><path d="M37 60V140"/><path d="M37 60h31a16 16 0 0 1 0 32H37"/><path d="M56 92l32 48"/><path d="M116 60v80"/><path d="M164 60v80"/><path d="M116 100h48"/></g></g></g><text x="540" y="520" text-anchor="middle" fill="#F4F0E8" font-family="Bodoni Moda, Didot, Georgia, serif" font-size="72" font-weight="400">Certificate of</text><text x="540" y="600" text-anchor="middle" fill="#F4F0E8" font-family="Bodoni Moda, Didot, Georgia, serif" font-size="72" font-weight="400">Authentication</text><path d="M140 700h800" stroke="#2A2926" stroke-width="1.5"/><text x="140" y="790" text-anchor="start" fill="#8A857C" font-family="Archivo, Helvetica Neue, Arial, sans-serif" font-size="22" font-weight="400" letter-spacing="6">SERIAL</text><text x="940" y="790" text-anchor="end" fill="#F4F0E8" font-family="IBM Plex Mono, Menlo, monospace" font-size="26" font-weight="400">RH-SNK-04127-A</text><path d="M140 824h800" stroke="#2A2926" stroke-width="1"/><text x="140" y="886" text-anchor="start" fill="#8A857C" font-family="Archivo, Helvetica Neue, Arial, sans-serif" font-size="22" font-weight="400" letter-spacing="6">CATEGORY</text><text x="940" y="886" text-anchor="end" fill="#F4F0E8" font-family="IBM Plex Mono, Menlo, monospace" font-size="26" font-weight="400">SNEAKERS</text><path d="M140 920h800" stroke="#2A2926" stroke-width="1"/><text x="140" y="982" text-anchor="start" fill="#8A857C" font-family="Archivo, Helvetica Neue, Arial, sans-serif" font-size="22" font-weight="400" letter-spacing="6">GRADE</text><text x="940" y="982" text-anchor="end" fill="#F4F0E8" font-family="IBM Plex Mono, Menlo, monospace" font-size="26" font-weight="400">DS &#8212; DEADSTOCK</text><path d="M140 1016h800" stroke="#2A2926" stroke-width="1"/><text x="140" y="1078" text-anchor="start" fill="#8A857C" font-family="Archivo, Helvetica Neue, Arial, sans-serif" font-size="22" font-weight="400" letter-spacing="6">EXAMINED</text><text x="940" y="1078" text-anchor="end" fill="#F4F0E8" font-family="IBM Plex Mono, Menlo, monospace" font-size="26" font-weight="400">08.09.2026</text><path d="M140 1112h800" stroke="#2A2926" stroke-width="1"/><text x="140" y="1174" text-anchor="start" fill="#8A857C" font-family="Archivo, Helvetica Neue, Arial, sans-serif" font-size="22" font-weight="400" letter-spacing="6">AUTHENTICATOR</text><text x="940" y="1174" text-anchor="end" fill="#F4F0E8" font-family="IBM Plex Mono, Menlo, monospace" font-size="26" font-weight="400">A. M&#216;LLER &#183; #014</text><path d="M140 1208h800" stroke="#2A2926" stroke-width="1"/><text x="540" y="1270" text-anchor="middle" fill="#B4935A" font-family="Archivo, Helvetica Neue, Arial, sans-serif" font-size="20" font-weight="500" letter-spacing="8">EXAMINED IN-HOUSE BEFORE LISTING</text>
</svg>
